<svg width="1440" height="1024" viewBox="0 0 1440 1024" fill="none" xmlns="http://www.w3.org/2000/svg">
<rect x="242" y="-189.42" width="1320.06" height="1788.51" transform="rotate(-33.4473 242 -189.42)" fill="#D9D1FF"/>
<circle cx="317" cy="272" r="150" fill="#E64C4C"/>
<circle cx="1134" cy="757" r="150" fill="#70ABF1"/>
<path d="M323.605 210.372L330.454 188.845V176.125L329.476 165.362L246.305 94.912L195.425 73.3856L131.824 51.8592L73.1155 42.0744L-20.818 6.10352e-05L-58 178.082L-34.5166 187.867L-21.7965 202.544L-12.0117 219.178L-7.11937 237.769L-0.270057 250.489L8.53621 273.973L15.3855 299.413L26.1487 320.939L47.6751 336.595L65.2877 350.294L83.8787 366.928L104.427 385.519L121.061 400.196L142.587 409.002L164.114 422.701L175.855 432.485L183.683 438.356L190.532 440.313H196.403L205.209 434.442L209.123 421.722L208.145 406.067L201.296 392.368L188.575 375.734L177.812 363.992L160.2 349.315L151.393 341.487L134.759 328.767L123.996 318.004L116.168 311.155L124.975 291.585L157.264 298.435L185.64 310.176L210.102 318.004L229.671 328.767L285.444 356.164L310.885 370.842L349.045 389.433L351.002 391.39L362.744 399.217L381.335 409.002L396.012 416.83L408.732 421.722L420.474 423.679L432.215 420.744L439.065 414.873L442 407.045V400.196L436.129 391.39L418.517 374.755M323.605 210.372L349.045 237.769L351.002 242.662L349.045 259.296L360.787 267.123L367.636 272.994L382.313 295.499L400.904 318.004L410.689 327.789L416.56 339.53L420.474 349.315L423.409 363.992V367.906L418.517 374.755M323.605 210.372L282.509 175.147L272.724 162.427M418.517 374.755L396.99 357.143L369.593 340.509L354.916 330.724L330.454 309.198L312.841 297.456L285.444 283.757L256.09 268.102L241.413 258.317M348.067 259.296L281.53 215.264L273.703 207.436" stroke="black" stroke-width="5"/>
<path d="M1134.35 678.786L1092.77 690.821L1071.99 695.197L1049.01 710.514L1023.85 722.549L1021.66 729.114V736.772L1024.94 743.337L1031.51 748.807L1040.26 753.184L1052.29 755.372L1062.14 752.09L1071.99 746.619L1087.3 743.337L1100.43 737.867L1129.97 734.584L1157.33 732.396H1161.7L1173.74 741.149L1184.68 746.619L1187.96 749.902H1193.43M1102.62 737.867L1088.4 749.902L1085.12 754.278L1066.52 764.125L1059.95 770.689V778.348L1064.33 786.007L1073.08 791.477L1085.12 793.665L1096.06 790.383L1108.09 786.007L1115.75 780.536L1134.35 771.783L1155.14 767.407L1183.58 765.219L1201.09 767.407M1206.56 779.442L1190.15 786.007L1174.83 792.571L1163.89 798.042L1149.67 803.512L1144.2 808.982L1146.39 817.735L1152.95 826.488L1163.89 829.77L1178.11 828.676L1197.81 826.488L1217.5 822.112H1225.16M1248.14 697.385L1267.83 721.455L1283.15 733.49L1303.93 743.337M1321.44 1083.6L1300.65 1077.04L1225.16 1037.65L1179.21 1012.48L1125.6 970.908L1075.27 940.274L1049.01 916.203L1022.75 889.945L1018.38 879.004V864.781L1022.75 852.746L1034.79 843.993L1052.29 838.523L1067.61 842.899L1096.06 852.746L1111.37 860.405L1136.54 880.098L1147.48 887.757L1169.36 898.698L1197.81 907.451L1205.47 905.263L1218.6 894.322L1228.44 876.816L1232.82 866.969V843.993L1230.63 833.053L1225.16 821.018L1207.65 782.724L1194.53 749.902L1191.24 744.431L1143.1 686.444L1132.16 676.597L1099.34 651.433L1079.65 635.022L1051.2 619.705L1035.88 609.858L1021.66 600.011L1014 584.694L1016.19 570.47L1021.66 565H1035.88L1055.58 572.659L1067.61 578.129L1098.25 584.694L1154.04 614.234L1181.4 624.081L1202.18 645.963L1224.07 670.033L1247.04 697.385L1270.02 709.42L1313.78 724.737L1335.66 731.302L1356.45 753.184L1372.86 786.007L1393.65 817.735L1405.68 842.899L1430.85 874.628L1448.35 897.604L1461.48 912.921L1487.74 957.779L1514 986.225L1321.44 1083.6Z" stroke="black" stroke-width="5"/>
</svg>
