<svg width="86" height="20" viewBox="0 0 86 20" fill="none" xmlns="http://www.w3.org/2000/svg">
<path d="M20 10C20 15.5228 15.5228 20 10 20C4.47715 20 0 15.5228 0 10C0 4.47715 4.47715 0 10 0C15.5228 0 20 4.47715 20 10Z" fill="black"/>
<path d="M53 10C53 15.5228 48.5228 20 43 20C37.4772 20 33 15.5228 33 10C33 4.47715 37.4772 0 43 0C48.5228 0 53 4.47715 53 10Z" fill="black"/>
<path d="M86 10C86 15.5228 81.5228 20 76 20C70.4772 20 66 15.5228 66 10C66 4.47715 70.4772 0 76 0C81.5228 0 86 4.47715 86 10Z" fill="black"/>
</svg>
